<svg id="Layer_1" data-name="Layer 1" xmlns="http://www.w3.org/2000/svg" viewBox="0 0 293.56 71.81"><title>logo-main</title><path d="M130,259.9v17H119.39V231h14.93a30.66,30.66,0,0,1,8.49,1,16,16,0,0,1,5.73,2.85,10.8,10.8,0,0,1,3.23,4.32,14.3,14.3,0,0,1,1,5.42,14.55,14.55,0,0,1-.6,4.22,12.78,12.78,0,0,1-1.78,3.67,13.78,13.78,0,0,1-2.9,3,15.4,15.4,0,0,1-4,2.17,10.06,10.06,0,0,1,2,1.32,7.88,7.88,0,0,1,1.62,1.92l9.77,16h-9.64a4.09,4.09,0,0,1-3.84-2l-7.62-13.33a3.21,3.21,0,0,0-1.18-1.26,4,4,0,0,0-1.91-.38Zm0-7.34h4.28A11,11,0,0,0,138,252a6.69,6.69,0,0,0,2.5-1.53A5.82,5.82,0,0,0,142,248.2a8.77,8.77,0,0,0,.44-2.82,5.92,5.92,0,0,0-2-4.73q-2-1.7-6.1-1.7H130Z" transform="translate(-119.39 -230.98)"/><path d="M203.45,231v8.19H184.61v10.71H199v7.88H184.61v10.93h18.84v8.19H173.9V231Z" transform="translate(-119.39 -230.98)"/><path d="M251.65,231v8.19H232.81v10.71h14.43v7.88H232.81v10.93h18.84v8.19H222.1V231Z" transform="translate(-119.39 -230.98)"/><path d="M304.51,302.79H293.8V283.38H275.15v19.41H264.44v-45.9h10.71v19.19H293.8V256.88h10.71Z" transform="translate(-119.39 -230.98)"/><path d="M354.23,256.88v8.19H335.39v10.71h14.43v7.88H335.39V294.6h18.84v8.19H324.67v-45.9Z" transform="translate(-119.39 -230.98)"/><path d="M379.65,256.95a3,3,0,0,1,.85.24,2.88,2.88,0,0,1,.72.49,8.55,8.55,0,0,1,.79.85l21.8,27.57q-.13-1.32-.19-2.57t-.06-2.35V256.88H413v45.9h-5.55a5.11,5.11,0,0,1-2.08-.38,4.45,4.45,0,0,1-1.64-1.39L382,273.68q.1,1.2.16,2.35t.06,2.16v24.61h-9.39v-45.9h5.61A9.12,9.12,0,0,1,379.65,256.95Z" transform="translate(-119.39 -230.98)"/><rect x="145.04" width="148.52" height="9.21"/><rect y="62.59" width="132.26" height="9.21"/></svg>